<?xml version="1.0" encoding="utf-8"?>
<!-- Generator: Adobe Illustrator 18.1.1, SVG Export Plug-In . SVG Version: 6.00 Build 0)  -->
<!DOCTYPE svg PUBLIC "-//W3C//DTD SVG 1.1//EN" "http://www.w3.org/Graphics/SVG/1.1/DTD/svg11.dtd">
<svg version="1.1" xmlns="http://www.w3.org/2000/svg" xmlns:xlink="http://www.w3.org/1999/xlink" x="0px" y="0px"
	 viewBox="0 0 144 152" enable-background="new 0 0 144 152" xml:space="preserve">
<g id="work" display="none">
	<g id="logotype" display="inline">
		<g id="logotype_original">
		</g>
		<g id="k_development">
		</g>
		<g id="r_development">
		</g>
		<g id="e_development">
		</g>
	</g>
	<g id="logo_v1" display="inline">
	</g>
	<g id="logo_v2" display="inline">
	</g>
	<g id="logo_v3__x28_stroke_x29_" display="inline">
		<g id="logo-8pt-stroke">
		</g>
		<g id="logo-9pt-stroke">
		</g>
		<g id="logo-9pt-expanded">
		</g>
	</g>
</g>
<g id="gradient">
</g>
<g id="white">
</g>
<g id="black">
</g>
<g id="purple">
	<path fill="#430098" d="M100.8,36H43.2c-3.976,0-7.2,3.224-7.2,7.2v65.6c0,3.976,3.224,7.2,7.2,7.2h57.6c3.976,0,7.2-3.224,7.2-7.2
		V43.2C108,39.224,104.776,36,100.8,36z M54,104V88l9,8L54,104z M82,104V80.11C81.961,78.243,81.062,76,77,76
		c-8.134,0-17.258,4.091-17.349,4.132L54,82.692V48h8v22.711C65.994,69.411,71.577,68,77,68c4.945,0,7.905,1.944,9.517,3.575
		C89.958,75.055,90.005,79.488,90,80l0,24H82z M84,61h-8c3.144-4.125,5.118-8.466,6-13h8C89.46,52.544,87.618,56.9,84,61z"/>
</g>
</svg>
