<?xml version="1.0" encoding="utf-8"?>
<!-- Generator: Adobe Illustrator 18.1.1, SVG Export Plug-In . SVG Version: 6.00 Build 0)  -->
<!DOCTYPE svg PUBLIC "-//W3C//DTD SVG 1.1//EN" "http://www.w3.org/Graphics/SVG/1.1/DTD/svg11.dtd">
<svg version="1.1" xmlns="http://www.w3.org/2000/svg" xmlns:xlink="http://www.w3.org/1999/xlink" x="0px" y="0px"
	 viewBox="0 0 144 152" enable-background="new 0 0 144 152" xml:space="preserve">
<g id="work" display="none">
	<g id="logotype" display="inline">
		<g id="logotype_original">
		</g>
		<g id="k_development">
		</g>
		<g id="r_development">
		</g>
		<g id="e_development">
		</g>
	</g>
	<g id="logo_v1" display="inline">
	</g>
	<g id="logo_v2" display="inline">
	</g>
	<g id="logo_v3__x28_stroke_x29_" display="inline">
		<g id="logo-8pt-stroke">
		</g>
		<g id="logo-9pt-stroke">
		</g>
		<g id="logo-9pt-expanded">
		</g>
	</g>
	<g display="inline">
		<radialGradient id="SVGID_1_" cx="72" cy="76" r="53.5023" gradientUnits="userSpaceOnUse">
			<stop  offset="0" style="stop-color:#844DB8"/>
			<stop  offset="1" style="stop-color:#5B16A3"/>
		</radialGradient>
		<path fill="url(#SVGID_1_)" d="M100.8,36H43.2c-3.976,0-7.2,3.224-7.2,7.2v65.6c0,3.976,3.224,7.2,7.2,7.2h57.6
			c3.976,0,7.2-3.224,7.2-7.2V43.2C108,39.224,104.776,36,100.8,36z"/>
		<linearGradient id="SVGID_6_" gradientUnits="userSpaceOnUse" x1="36.5" y1="111.5" x2="112.7647" y2="35.2352">
			<stop  offset="0" style="stop-color:#675DC6;stop-opacity:0.5"/>
			<stop  offset="1" style="stop-color:#675DC6;stop-opacity:0"/>
		</linearGradient>
		<path fill="url(#SVGID_6_)" d="M100.8,36H43.2c-3.976,0-7.2,3.224-7.2,7.2v65.6c0,3.976,3.224,7.2,7.2,7.2h57.6
			c3.976,0,7.2-3.224,7.2-7.2V43.2C108,39.224,104.776,36,100.8,36z"/>
	</g>
</g>
<g id="gradient">
	<g>
		<radialGradient id="SVGID_7_" cx="72" cy="76" r="53.5023" gradientUnits="userSpaceOnUse">
			<stop  offset="0" style="stop-color:#844DB8"/>
			<stop  offset="1" style="stop-color:#5B16A3"/>
		</radialGradient>
		<path fill="url(#SVGID_7_)" d="M100.8,36H43.2c-3.976,0-7.2,3.224-7.2,7.2v65.6c0,3.976,3.224,7.2,7.2,7.2h57.6
			c3.976,0,7.2-3.224,7.2-7.2V43.2C108,39.224,104.776,36,100.8,36z"/>
		<linearGradient id="SVGID_9_" gradientUnits="userSpaceOnUse" x1="36.5" y1="111.5" x2="112.7647" y2="35.2352">
			<stop  offset="0" style="stop-color:#7673C0;stop-opacity:0.5"/>
			<stop  offset="1" style="stop-color:#7673C0;stop-opacity:0"/>
		</linearGradient>
		<path fill="url(#SVGID_9_)" d="M100.8,36H43.2c-3.976,0-7.2,3.224-7.2,7.2v65.6c0,3.976,3.224,7.2,7.2,7.2h57.6
			c3.976,0,7.2-3.224,7.2-7.2V43.2C108,39.224,104.776,36,100.8,36z"/>
	</g>
</g>
<g id="white">
	<g id="logo_6_">
		<polygon fill="#FFFFFF" points="54,104 63,96 54,88 		"/>
		<path fill="#FFFFFF" d="M86.517,71.575C84.905,69.944,81.945,68,77,68c-5.423,0-11.006,1.411-15,2.711V48h-8v34.692l5.651-2.56
			C59.742,80.091,68.866,76,77,76c4.062,0,4.961,2.243,5,4.11V104h8l0-24C90.005,79.488,89.958,75.055,86.517,71.575z"/>
		<path fill="#FFFFFF" d="M76,61h8c3.618-4.1,5.46-8.456,6-13h-8C81.118,52.534,79.144,56.875,76,61z"/>
	</g>
</g>
<g id="black">
</g>
<g id="purple">
</g>
</svg>
