<svg version="1.1" xmlns="http://www.w3.org/2000/svg" xmlns:xlink="http://www.w3.org/1999/xlink" enable-background="new 0 0 144 152" xml:space="preserve" width="144" height="152"><rect id="backgroundrect" width="100%" height="100%" x="0" y="0" fill="none" stroke="none"/>





<g class="currentLayer" style=""><title>Layer 1</title><g id="work" display="none">
	<g id="logotype" display="inline">
		<g id="logotype_original">
		</g>
		<g id="k_development">
		</g>
		<g id="r_development">
		</g>
		<g id="e_development">
		</g>
	</g>
	<g id="logo_v1" display="inline">
	</g>
	<g id="logo_v2" display="inline">
	</g>
	<g id="logo_v3__x28_stroke_x29_" display="inline">
		<g id="logo-8pt-stroke">
		</g>
		<g id="logo-9pt-stroke">
		</g>
		<g id="logo-9pt-expanded">
		</g>
	</g>
</g><g id="gradient">
</g><g id="white" class="selected">
	<path fill="#FFFFFF" d="M119.11952209472656,10.556221008300781 H24.880474090576172 c-6.505112171173096,0 -11.77988052368164,5.274768829345703 -11.77988052368164,11.77988052368164 v107.32780456542969 c0,6.505112171173096 5.274768829345703,11.77988052368164 11.77988052368164,11.77988052368164 h94.23904418945312 c6.505112171173096,0 11.77988052368164,-5.274768829345703 11.77988052368164,-11.77988052368164 V22.336101531982422 C130.89939880371094,15.830989837646484 125.6246337890625,10.556221008300781 119.11952209472656,10.556221008300781 zM42.55029296875,121.81064987182617 V95.63314437866211 l14.724851608276367,13.088756561279297 L42.55029296875,121.81064987182617 zM88.36094665527344,121.81064987182617 V82.72434616088867 C88.29713439941406,79.66975021362305 86.82627868652344,76.0000114440918 80.18046569824219,76.0000114440918 c-13.307992935180664,0 -28.235719680786133,6.693263053894043 -28.384605407714844,6.760342597961426 L42.55029296875,86.94875717163086 V30.189353942871094 h13.088756561279297 v37.157344818115234 C62.173622131347656,65.21978378295898 71.30793762207031,62.91124725341797 80.18046569824219,62.91124725341797 c8.090487480163574,0 12.933327674865723,3.180567741394043 15.570712089538574,5.849038124084473 C101.3809814453125,74.45389938354492 101.45787048339844,81.70670700073242 101.44969177246094,82.54438400268555 l0,39.26626968383789 H88.36094665527344 zM91.63313293457031,51.458587646484375 h-13.088756561279297 c5.143881320953369,-6.748889923095703 8.37353229522705,-13.851176261901855 9.816567420959473,-21.269229888916016 h13.088756561279297 C100.56620788574219,37.6237678527832 97.55250549316406,44.75060272216797 91.63313293457031,51.458587646484375 z" id="svg_1"/>
</g><g id="black">
</g><g id="purple">
</g></g></svg>