<svg width="256" height="289" version="1.1" xmlns="http://www.w3.org/2000/svg" xmlns:xlink="http://www.w3.org/1999/xlink" preserveAspectRatio="xMidYMid" style=""><rect id="backgroundrect" width="100%" height="100%" x="0" y="0" fill="none" stroke="none"/>
    
<g class="currentLayer" style=""><title>Layer 1</title><g id="svg_1" class="selected" fill="#ffffff" fill-opacity="1">
        <path d="M128,281.6313018798828 C124.22054290771484,281.6313018798828 120.69305419921875,280.6234588623047 117.41751861572266,278.8596954345703 L83.90634155273438,258.9545440673828 C78.8670654296875,256.18296813964844 81.3866958618164,255.1751251220703 82.89849090576172,254.67117309570312 C89.7015151977539,252.40350341796875 90.9613265991211,251.89956665039062 98.01631164550781,247.86814880371094 C98.77220153808594,247.36422729492188 99.7800521850586,247.61619567871094 100.53594207763672,248.1201171875 L126.23625183105469,263.4899139404297 C127.24411010742188,263.99388122558594 128.50392150878906,263.99388122558594 129.25982666015625,263.4899139404297 L229.79336547851562,205.28628540039062 C230.80123901367188,204.78233337402344 231.30517578125,203.7744903564453 231.30517578125,202.51466369628906 L231.30517578125,86.35936737060547 C231.30517578125,85.09954071044922 230.80123901367188,84.09169006347656 229.79336547851562,83.58776092529297 L129.25982666015625,25.636089324951172 C128.25196838378906,25.13216209411621 126.99214172363281,25.13216209411621 126.23625183105469,25.636089324951172 L25.70270347595215,83.58776092529297 C24.694847106933594,84.09169006347656 24.190919876098633,85.35150909423828 24.190919876098633,86.35936737060547 L24.190919876098633,202.51466369628906 C24.190919876098633,203.5225372314453 24.694847106933594,204.78233337402344 25.70270347595215,205.28628540039062 L53.16675567626953,221.16000366210938 C68.03262329101562,228.7189178466797 77.35527801513672,219.90017700195312 77.35527801513672,211.08143615722656 L77.35527801513672,96.43791961669922 C77.35527801513672,94.9261245727539 78.61509704589844,93.41435241699219 80.37884521484375,93.41435241699219 L93.22900390625,93.41435241699219 C94.74077606201172,93.41435241699219 96.2525634765625,94.6741714477539 96.2525634765625,96.43791961669922 L96.2525634765625,211.08143615722656 C96.2525634765625,230.986572265625 85.41812133789062,242.57691955566406 66.52083587646484,242.57691955566406 C60.725669860839844,242.57691955566406 56.19032287597656,242.57691955566406 43.34016799926758,236.27781677246094 L16.883970260620117,221.16000366210938 C10.332911491394043,217.38052368164062 6.301490783691406,210.32554626464844 6.301490783691406,202.7666473388672 L6.301490783691406,86.611328125 C6.301490783691406,79.05241394042969 10.332911491394043,71.99742889404297 16.883970260620117,68.21797180175781 L117.41751861572266,10.014331817626953 C123.71662139892578,6.48684024810791 132.28338623046875,6.48684024810791 138.58248901367188,10.014331817626953 L239.11602783203125,68.21797180175781 C245.66708374023438,71.99742889404297 249.69851684570312,79.05241394042969 249.69851684570312,86.611328125 L249.69851684570312,202.7666473388672 C249.69851684570312,210.32554626464844 245.66708374023438,217.38052368164062 239.11602783203125,221.16000366210938 L138.58248901367188,279.3636016845703 C135.30694580078125,280.8754119873047 131.52749633789062,281.6313018798828 128,281.6313018798828 L128,281.6313018798828 zM158.99154663085938,201.75877380371094 C114.89788818359375,201.75877380371094 105.82719421386719,181.60166931152344 105.82719421386719,164.4681396484375 C105.82719421386719,162.9563446044922 107.0870132446289,161.444580078125 108.85075378417969,161.444580078125 L121.952880859375,161.444580078125 C123.46465301513672,161.444580078125 124.72447204589844,162.4524383544922 124.72447204589844,163.96421813964844 C126.74018859863281,177.31829833984375 132.53533935546875,183.86935424804688 159.2435302734375,183.86935424804688 C180.40847778320312,183.86935424804688 189.47915649414062,179.08203125 189.47915649414062,167.74366760253906 C189.47915649414062,161.19259643554688 186.95953369140625,156.40530395507812 153.9522705078125,153.1297607421875 C126.48822021484375,150.35816955566406 109.35468292236328,144.31103515625 109.35468292236328,122.39018249511719 C109.35468292236328,101.98111724853516 126.48822021484375,89.88685607910156 155.21209716796875,89.88685607910156 C187.46347045898438,89.88685607910156 203.33718872070312,100.9732666015625 205.3529052734375,125.16178894042969 C205.3529052734375,125.91767883300781 205.10092163085938,126.67357635498047 204.59698486328125,127.4294662475586 C204.09307861328125,127.93338775634766 203.33718872070312,128.43731689453125 202.58126831054688,128.43731689453125 L189.47915649414062,128.43731689453125 C188.2193603515625,128.43731689453125 186.95953369140625,127.4294662475586 186.70758056640625,126.16963958740234 C183.68399047851562,112.31163787841797 175.87310791015625,107.77628326416016 155.21209716796875,107.77628326416016 C132.03143310546875,107.77628326416016 129.25982666015625,115.83912658691406 129.25982666015625,121.88626098632812 C129.25982666015625,129.19319915771484 132.53533935546875,131.46087646484375 163.77886962890625,135.49229431152344 C194.7703857421875,139.52371215820312 209.38430786132812,145.3188934326172 209.38430786132812,166.98777770996094 C209.13232421875,189.1605987548828 190.99093627929688,201.75877380371094 158.99154663085938,201.75877380371094 L158.99154663085938,201.75877380371094 z" fill="#ffffff" id="svg_2" fill-opacity="1"/>
    </g></g></svg>