<svg xmlns="http://www.w3.org/2000/svg" width="672.8562890291214" height="594.1077851057053" style=""><rect id="backgroundrect" width="100%" height="100%" x="0" y="0" fill="none" stroke="none"/>
    
<g class="currentLayer" style=""><title>Layer 1</title><g fill="#ffffff" id="svg_1" class="selected" fill-opacity="1">
        <path d="M661.9676513671875,297.1202244758606 c0,-43.13100051879883 -54.013282775878906,-84.00591278076172 -136.82479858398438,-109.35367584228516 c19.110349655151367,-84.40404510498047 10.616861343383789,-151.55569458007812 -26.807575225830078,-173.05482482910156 c-8.626199722290039,-5.043009281158447 -18.71221923828125,-7.431802749633789 -29.727210998535156,-7.431802749633789 v29.594499588012695 c6.1046953201293945,0 11.014993667602539,1.1943968534469604 15.129027366638184,3.450479745864868 c18.048664093017578,10.3514404296875 25.878599166870117,49.766536712646484 19.773902893066406,100.46204376220703 c-1.4598184823989868,12.474811553955078 -3.8486123085021973,25.613176345825195 -6.768249034881592,39.016963958740234 c-26.011310577392578,-6.3701171875 -54.411415100097656,-11.280415534973145 -84.2713394165039,-14.465473175048828 c-17.915952682495117,-24.55149269104004 -36.495460510253906,-46.846900939941406 -55.20767593383789,-66.35538482666016 c43.26370620727539,-40.211360931396484 83.87320709228516,-62.24135208129883 111.47704315185547,-62.24135208129883 V7.147215366363525 c-36.495460510253906,0 -84.2713394165039,26.011310577392578 -132.57806396484375,71.13297271728516 c-48.30672073364258,-44.856239318847656 -96.08259582519531,-70.60212707519531 -132.57806396484375,-70.60212707519531 v29.594499588012695 c27.47113037109375,0 68.21333312988281,21.897275924682617 111.47704315185547,61.84321594238281 c-18.57950782775879,19.508481979370117 -37.15901565551758,41.671180725097656 -54.809547424316406,66.22267150878906 c-29.992633819580078,3.18505859375 -58.392738342285156,8.095356941223145 -84.40404510498047,14.598184585571289 c-3.0523476600646973,-13.271076202392578 -5.3084306716918945,-26.14402198791504 -6.900959491729736,-38.486122131347656 c-6.237405776977539,-50.69551467895508 1.4598184823989868,-90.11061096191406 19.37577247619629,-100.59476470947266 c3.981323003768921,-2.388793706893921 9.15704345703125,-3.450479745864868 15.261737823486328,-3.450479745864868 V7.810766696929932 c-11.147704124450684,0 -21.233722686767578,2.388793706893921 -29.992633819580078,7.431802749633789 c-37.291725158691406,21.4991455078125 -45.652503967285156,88.51807403564453 -26.409442901611328,172.65672302246094 c-82.54609680175781,25.48046875 -136.29396057128906,66.22267150878906 -136.29396057128906,109.22096252441406 c0,43.13100051879883 54.013282775878906,84.00591278076172 136.82479858398438,109.35367584228516 c-19.110349655151367,84.40404510498047 -10.616861343383789,151.55569458007812 26.807575225830078,173.05482482910156 c8.626199722290039,5.043009281158447 18.71221923828125,7.431802749633789 29.859922409057617,7.431802749633789 c36.495460510253906,0 84.2713394165039,-26.011310577392578 132.57806396484375,-71.13297271728516 c48.30672073364258,44.856239318847656 96.08259582519531,70.60212707519531 132.57806396484375,70.60212707519531 c11.147704124450684,0 21.233722686767578,-2.388793706893921 29.992633819580078,-7.431802749633789 c37.291725158691406,-21.4991455078125 45.652503967285156,-88.51807403564453 26.409442901611328,-172.65672302246094 c82.28067779541016,-25.34775733947754 136.02853393554688,-66.22267150878906 136.02853393554688,-109.22096252441406 zm-172.78941345214844,-88.51807403564453 c-4.9102983474731445,17.119688034057617 -11.014993667602539,34.77022171020508 -17.915952682495117,52.420753479003906 c-5.441141128540039,-10.616861343383789 -11.147704124450684,-21.233722686767578 -17.38511085510254,-31.850584030151367 c-6.1046953201293945,-10.616861343383789 -12.607522964477539,-20.96830177307129 -19.110349655151367,-31.054319381713867 c18.844928741455078,2.786926031112671 37.026302337646484,6.237405776977539 54.411415100097656,10.484150886535645 zm-60.78152847290039,141.3369598388672 c-10.3514404296875,17.915952682495117 -20.96830177307129,34.902931213378906 -31.983295440673828,50.69551467895508 c-19.773902893066406,1.725239872932434 -39.813228607177734,2.6542153358459473 -59.985267639160156,2.6542153358459473 c-20.039325714111328,0 -40.078651428222656,-0.9289753437042236 -59.719844818115234,-2.5215046405792236 c-11.014993667602539,-15.792580604553223 -21.764564514160156,-32.6468505859375 -32.116004943847656,-50.430091857910156 c-10.086018562316895,-17.38511085510254 -19.243061065673828,-35.035640716552734 -27.603837966918945,-52.818885803222656 c8.228067398071289,-17.78324317932129 17.517820358276367,-35.56648635864258 27.47113037109375,-52.95159912109375 c10.3514404296875,-17.915952682495117 20.96830177307129,-34.902931213378906 31.983295440673828,-50.69551467895508 c19.773902893066406,-1.725239872932434 39.813228607177734,-2.6542153358459473 59.985267639160156,-2.6542153358459473 c20.039325714111328,0 40.078651428222656,0.9289753437042236 59.719844818115234,2.5215046405792236 c11.014993667602539,15.792580604553223 21.764564514160156,32.6468505859375 32.116004943847656,50.430091857910156 c10.086018562316895,17.38511085510254 19.243061065673828,35.035640716552734 27.603837966918945,52.818885803222656 c-8.36077880859375,17.78324317932129 -17.517820358276367,35.56648635864258 -27.47113037109375,52.95159912109375 zm42.865577697753906,-17.252399444580078 c7.166381359100342,17.78324317932129 13.271076202392578,35.56648635864258 18.3140869140625,52.818885803222656 c-17.38511085510254,4.246744632720947 -35.699195861816406,7.829935550689697 -54.67683792114258,10.616861343383789 c6.5028276443481445,-10.218729019165039 13.005655288696289,-20.702880859375 19.110349655151367,-31.45245361328125 c6.1046953201293945,-10.616861343383789 11.811257362365723,-21.36643409729004 17.252399444580078,-31.983295440673828 zM336.6935729980469,474.28910875320435 c-12.342101097106934,-12.740234375 -24.684202194213867,-26.940284729003906 -36.893592834472656,-42.467445373535156 c11.943968772888184,0.5308430790901184 24.15336036682129,0.9289753437042236 36.495460510253906,0.9289753437042236 c12.474811553955078,0 24.816913604736328,-0.2654215395450592 36.893592834472656,-0.9289753437042236 c-11.943968772888184,15.527159690856934 -24.286069869995117,29.727210998535156 -36.495460510253906,42.467445373535156 zm-98.73680877685547,-78.16664123535156 c-18.844928741455078,-2.786926031112671 -37.026302337646484,-6.237405776977539 -54.411415100097656,-10.484150886535645 c4.9102983474731445,-17.119688034057617 11.014993667602539,-34.77022171020508 17.915952682495117,-52.420753479003906 c5.441141128540039,10.616861343383789 11.147704124450684,21.233722686767578 17.38511085510254,31.850584030151367 c6.237405776977539,10.616861343383789 12.607522964477539,20.96830177307129 19.110349655151367,31.054319381713867 zM336.030029296875,119.95137071609497 c12.342101097106934,12.740234375 24.684202194213867,26.940284729003906 36.893592834472656,42.467445373535156 c-11.943968772888184,-0.5308430790901184 -24.15336036682129,-0.9289753437042236 -36.495460510253906,-0.9289753437042236 c-12.474811553955078,0 -24.816913604736328,0.2654215395450592 -36.893592834472656,0.9289753437042236 c11.943968772888184,-15.527159690856934 24.286069869995117,-29.727210998535156 36.495460510253906,-42.467445373535156 zm-98.20597076416016,78.16664123535156 c-6.5028276443481445,10.218729019165039 -13.005655288696289,20.702880859375 -19.110349655151367,31.45245361328125 c-6.1046953201293945,10.616861343383789 -11.811257362365723,21.233722686767578 -17.252399444580078,31.850584030151367 c-7.166381359100342,-17.78324317932129 -13.271076202392578,-35.56648635864258 -18.3140869140625,-52.818885803222656 c17.38511085510254,-4.1140336990356445 35.699195861816406,-7.6972246170043945 54.67683792114258,-10.484150886535645 zm-120.10324096679688,166.15386962890625 c-46.9796142578125,-20.039325714111328 -77.37037658691406,-46.31605911254883 -77.37037658691406,-67.15164947509766 c0,-20.835590362548828 30.390764236450195,-47.24502944946289 77.37037658691406,-67.15164947509766 c11.413125991821289,-4.9102983474731445 23.887937545776367,-9.289753913879395 36.76088333129883,-13.403787612915039 c7.564513683319092,26.011310577392578 17.517820358276367,53.08430480957031 29.859922409057617,80.82086181640625 c-12.209390640258789,27.603837966918945 -22.029987335205078,54.544124603271484 -29.4617919921875,80.42272186279297 c-13.138365745544434,-4.1140336990356445 -25.613176345825195,-8.626199722290039 -37.15901565551758,-13.536498069763184 zM189.1192169189453,553.9155735969543 c-18.048664093017578,-10.3514404296875 -25.878599166870117,-49.766536712646484 -19.773902893066406,-100.46204376220703 c1.4598184823989868,-12.474811553955078 3.8486123085021973,-25.613176345825195 6.768249034881592,-39.016963958740234 c26.011310577392578,6.3701171875 54.411415100097656,11.280415534973145 84.2713394165039,14.465473175048828 c17.915952682495117,24.55149269104004 36.495460510253906,46.846900939941406 55.20767593383789,66.35538482666016 c-43.26370620727539,40.211360931396484 -83.87320709228516,62.24135208129883 -111.47704315185547,62.24135208129883 c-5.971984386444092,-0.1327107697725296 -11.014993667602539,-1.3271076679229736 -14.996316909790039,-3.583190679550171 zm314.7899475097656,-101.12560272216797 c6.237405776977539,50.69551467895508 -1.4598184823989868,90.11061096191406 -19.37577247619629,100.59476470947266 c-3.981323003768921,2.388793706893921 -9.15704345703125,3.450479745864868 -15.261737823486328,3.450479745864868 c-27.47113037109375,0 -68.21333312988281,-21.897275924682617 -111.47704315185547,-61.84321594238281 c18.57950782775879,-19.508481979370117 37.15901565551758,-41.671180725097656 54.809547424316406,-66.22267150878906 c29.992633819580078,-3.18505859375 58.392738342285156,-8.095356941223145 84.40404510498047,-14.598184585571289 c3.0523476600646973,13.403787612915039 5.441141128540039,26.276731491088867 6.900959491729736,38.61883544921875 zm51.09364700317383,-88.51807403564453 c-11.413125991821289,4.9102983474731445 -23.887937545776367,9.289753913879395 -36.76088333129883,13.403787612915039 c-7.564513683319092,-26.011310577392578 -17.517820358276367,-53.08430480957031 -29.859922409057617,-80.82086181640625 c12.209390640258789,-27.603837966918945 22.029987335205078,-54.544124603271484 29.4617919921875,-80.42272186279297 c13.138365745544434,4.1140336990356445 25.613176345825195,8.626199722290039 37.291725158691406,13.536498069763184 c46.9796142578125,20.039325714111328 77.37037658691406,46.31605911254883 77.37037658691406,67.15164947509766 c-0.1327107697725296,20.835590362548828 -30.523475646972656,47.24502944946289 -77.50308990478516,67.15164947509766 zM203.4519500732422,7.678061008453369 z" id="svg_2" fill="#ffffff" fill-opacity="1"/>
        <circle cx="336.2954391780004" cy="297.12024050951004" r="60.6488037109375" id="svg_3" fill="#ffffff" fill-opacity="1"/>
        <path d="M468.475341796875,7.279921054840088 z" id="svg_4" fill="#ffffff" fill-opacity="1"/>
    </g></g></svg>